<svg xmlns="http://www.w3.org/2000/svg" width="1200" height="322" viewBox="0 0 1200 322" font-family="Inter, 'Segoe UI', Helvetica, Arial, sans-serif">
  <rect width="1200" height="322" rx="20" fill="#FFFFFF" stroke="#E6EAF2" stroke-width="2"/>
  <text x="28" y="34" font-size="16" font-weight="700" fill="#8A8FA3" letter-spacing="1.6">LANGUAGES · BY CODE SIZE</text>
  <g>
    <text x="0" y="68" font-size="19" font-weight="600" fill="#141824">C#</text>
    <rect x="180" y="52" width="760" height="20" rx="10" fill="#EDF0F6"/>
    <rect x="180" y="52" width="739" height="20" rx="10" fill="#2E4BFF"/>
    <text x="960" y="68" font-size="19" font-weight="700" fill="#141824">97.2%</text>
  </g>
  <g>
    <text x="0" y="114" font-size="19" font-weight="600" fill="#141824">JavaScript</text>
    <rect x="180" y="98" width="760" height="20" rx="10" fill="#EDF0F6"/>
    <rect x="180" y="98" width="7" height="20" rx="10" fill="#00B69B"/>
    <text x="960" y="114" font-size="19" font-weight="700" fill="#141824">1.0%</text>
  </g>
  <g>
    <text x="0" y="160" font-size="19" font-weight="600" fill="#141824">Python</text>
    <rect x="180" y="144" width="760" height="20" rx="10" fill="#EDF0F6"/>
    <rect x="180" y="144" width="6" height="20" rx="10" fill="#FFB800"/>
    <text x="960" y="160" font-size="19" font-weight="700" fill="#141824">0.8%</text>
  </g>
  <g>
    <text x="0" y="206" font-size="19" font-weight="600" fill="#141824">C++</text>
    <rect x="180" y="190" width="760" height="20" rx="10" fill="#EDF0F6"/>
    <rect x="180" y="190" width="5" height="20" rx="10" fill="#8B5CF6"/>
    <text x="960" y="206" font-size="19" font-weight="700" fill="#141824">0.7%</text>
  </g>
  <g>
    <text x="0" y="252" font-size="19" font-weight="600" fill="#141824">CSS</text>
    <rect x="180" y="236" width="760" height="20" rx="10" fill="#EDF0F6"/>
    <rect x="180" y="236" width="4" height="20" rx="10" fill="#FF6B6B"/>
    <text x="960" y="252" font-size="19" font-weight="700" fill="#141824">0.3%</text>
  </g>
  <g>
    <text x="0" y="298" font-size="19" font-weight="600" fill="#141824">HTML</text>
    <rect x="180" y="282" width="760" height="20" rx="10" fill="#EDF0F6"/>
    <rect x="180" y="282" width="4" height="20" rx="10" fill="#38BDF8"/>
    <text x="960" y="298" font-size="19" font-weight="700" fill="#141824">0.1%</text>
  </g>
</svg>
